<?xml version="1.0" standalone="no"?>
<!DOCTYPE svg PUBLIC "-//W3C//DTD SVG 20010904//EN"
 "http://www.w3.org/TR/2001/REC-SVG-20010904/DTD/svg10.dtd">
<svg version="1.0" xmlns="http://www.w3.org/2000/svg"
 width="233.000000pt" height="127.000000pt" viewBox="0 0 233.000000 127.000000"
 preserveAspectRatio="xMidYMid meet">

<g transform="translate(0.000000,127.000000) scale(0.100000,-0.100000)"
fill="#000000" stroke="none">
<path d="M406 985 c-23 -24 -33 -77 -40 -216 -3 -69 -13 -180 -21 -247 -16
-124 -14 -146 11 -156 25 -10 49 10 78 66 38 71 131 193 167 219 l28 20 5 -23
c2 -13 9 -52 15 -88 14 -85 44 -115 107 -107 60 6 120 40 181 100 59 58 56 59
104 -29 27 -51 20 -66 -51 -96 -58 -25 -80 -45 -80 -74 0 -35 42 -42 94 -16
22 11 91 61 151 110 l110 90 6 -33 c7 -44 23 -62 60 -70 37 -8 79 17 146 88
l50 53 19 -35 c39 -73 103 -61 208 40 l59 58 -7 -52 c-21 -160 -21 -155 7
-168 14 -6 32 -9 40 -6 8 3 39 41 69 84 31 43 64 86 76 96 20 18 20 18 27 -25
19 -112 85 -162 190 -142 48 9 105 58 105 90 0 30 -5 30 -55 -1 -84 -52 -149
-21 -158 76 -3 30 -5 72 -4 94 2 36 -1 40 -23 43 -38 4 -82 -29 -141 -107 -30
-38 -57 -70 -60 -70 -4 -1 2 38 13 86 25 114 22 138 -17 138 -21 0 -33 -7 -41
-23 -25 -51 -174 -182 -207 -182 -27 0 -41 76 -27 148 9 50 8 56 -16 88 -31
40 -58 43 -119 15 -38 -17 -79 -57 -152 -149 -30 -37 -159 -142 -175 -142 -9
0 -78 123 -78 140 0 7 16 28 35 47 36 35 44 60 23 81 -20 20 -45 14 -83 -19
-24 -21 -40 -47 -48 -77 -19 -72 -147 -172 -220 -172 -29 0 -38 23 -52 125 -9
71 -14 84 -36 96 -33 17 -82 -7 -142 -70 -31 -32 -70 -80 -87 -107 l-32 -49 5
40 c40 295 50 404 38 419 -17 20 -35 20 -55 1z m1120 -257 c-9 -53 -46 -118
-104 -180 -52 -55 -72 -61 -72 -19 0 64 121 241 166 241 14 0 15 -7 10 -42z"/>
<path d="M156 964 c-9 -8 -16 -16 -16 -17 0 -1 -14 -72 -31 -157 -39 -198 -49
-349 -25 -373 23 -22 38 -21 69 3 21 17 24 26 20 59 -6 47 22 274 44 351 20
70 19 107 -3 131 -21 23 -38 24 -58 3z"/>
</g>
</svg>
